<svg viewBox="0 0 512 512" xmlns="http://www.w3.org/2000/svg">
  <g fill="#020617">
    <path
      d="m396.11 315.81v-18.03c-11.23 15.6-31.67 24.66-57.93 24.66-33.76 0-57.09-15.23-66.38-41.86-6.46 25.96-31.04 41.86-65.84 41.86s-59.04-16.55-67.48-45.3v38.66c0 1.76-1.43 3.19-3.19 3.19h-43.97c-1.76 0-3.19-1.43-3.19-3.19v-20.26h-.98c-4.54 14.25-20.26 25.42-40.65 25.42-22.24 0-38.26-11.5-46.5-32.22v183.25c0 22.09 17.91 40 40 40h432c22.09 0 40-17.91 40-40v-152.99h-112.7c-1.76 0-3.19-1.43-3.19-3.19zm-342.12 50.09c5 0 8.71-2.18 10.37-6 .32-.75 1.07-1.22 1.88-1.22h.43c1.49 0 2.51 1.53 1.92 2.9-2.38 5.57-7.49 8.64-14.63 8.64-10.34 0-16.89-7.51-16.89-19.39s6.63-19.36 16.89-19.36c7.09 0 12.7 3.74 14.84 9.63.5 1.36-.5 2.82-1.96 2.82h-.53c-.86 0-1.62-.54-1.93-1.34-1.59-4.15-5.57-6.79-10.42-6.79-7.33 0-12.08 5.92-12.08 15.05s4.7 15.07 12.11 15.07zm46.45 4.31c-10.63 0-17.28-7.46-17.28-19.36s6.65-19.39 17.28-19.39 17.28 7.48 17.28 19.39-6.65 19.36-17.28 19.36zm69.63-2.7c0 1.15-.93 2.08-2.08 2.08h-.21c-1.15 0-2.08-.93-2.08-2.08v-26.82h-.18l-11.42 27.61c-.32.78-1.08 1.28-1.92 1.28h-1.17c-.84 0-1.6-.51-1.92-1.28l-11.42-27.61h-.18v26.82c0 1.15-.93 2.08-2.08 2.08h-.21c-1.15 0-2.08-.93-2.08-2.08v-33.34c0-1.15.93-2.08 2.08-2.08h1.96c.84 0 1.6.51 1.92 1.29l12.41 30.26h.21l12.41-30.26c.32-.78 1.08-1.29 1.92-1.29h1.96c1.15 0 2.08.93 2.08 2.08zm30.19-11.3h-6.57c-1.15 0-2.08.93-2.08 2.08v9.22c0 1.15-.93 2.08-2.08 2.08h-.52c-1.15 0-2.08-.93-2.08-2.08v-33.34c0-1.15.93-2.08 2.08-2.08h11.3c7.04 0 12.01 4.94 12.01 12.03s-5.02 12.08-12.06 12.08zm42.81 14.01c-10.63 0-17.28-7.46-17.28-19.36s6.65-19.39 17.28-19.39 17.28 7.48 17.28 19.39-6.65 19.36-17.28 19.36zm62.62-2.7c0 1.15-.93 2.08-2.08 2.08h-1.39c-.68 0-1.31-.33-1.7-.89l-19.91-28.45h-.23v27.26c0 1.15-.93 2.08-2.08 2.08h-.47c-1.15 0-2.08-.93-2.08-2.08v-33.34c0-1.15.93-2.08 2.08-2.08h1.38c.68 0 1.32.33 1.71.89l19.91 28.55h.23v-27.36c0-1.15.93-2.08 2.08-2.08h.47c1.15 0 2.08.93 2.08 2.08zm40.09-33.29c0 1.15-.93 2.08-2.08 2.08h-14.4c-1.15 0-2.08.93-2.08 2.08v7.87c0 1.15.93 2.08 2.08 2.08h13.43c1.15 0 2.08.93 2.08 2.08s-.93 2.08-2.08 2.08h-13.43c-1.15 0-2.08.93-2.08 2.08v8.73c0 1.15.93 2.08 2.08 2.08h14.4c1.15 0 2.08.93 2.08 2.08v.05c0 1.15-.93 2.08-2.08 2.08h-19.07c-1.15 0-2.08-.93-2.08-2.08v-33.34c0-1.15.93-2.08 2.08-2.08h19.07c1.15 0 2.08.93 2.08 2.08zm45.67 33.29c0 1.15-.93 2.08-2.08 2.08h-1.39c-.68 0-1.31-.33-1.7-.89l-19.91-28.45h-.23v27.26c0 1.15-.93 2.08-2.08 2.08h-.47c-1.15 0-2.08-.93-2.08-2.08v-33.34c0-1.15.93-2.08 2.08-2.08h1.38c.68 0 1.32.33 1.71.89l19.91 28.55h.23v-27.36c0-1.15.93-2.08 2.08-2.08h.47c1.15 0 2.08.93 2.08 2.08zm71.39-14.24-4.16-.91c-7.51-1.64-10.76-5.04-10.76-10.37 0-6.18 5.46-10.52 13.23-10.52 6.4 0 11.28 3.27 12.69 8.2.38 1.32-.64 2.63-2.02 2.63h-.56c-.94 0-1.72-.65-2-1.54-.99-3.19-4-5.08-8.24-5.08-4.68 0-8.29 2.29-8.29 6.11 0 2.96 2 4.99 7.12 6.11l4.16.91c7.82 1.72 10.91 4.83 10.91 10.13 0 6.94-5.46 11.28-13.85 11.28-6.98 0-11.98-3.06-13.57-7.98-.43-1.33.6-2.7 2-2.7h.55c.9 0 1.66.59 1.97 1.43 1.15 3.17 4.61 5.04 9.32 5.04 5.09 0 8.78-2.68 8.78-6.37 0-3.14-2.08-5.22-7.28-6.37zm-56.87-19.1c0-1.15.93-2.08 2.08-2.08h24.17c1.15 0 2.08.93 2.08 2.08v.05c0 1.15-.93 2.08-2.08 2.08h-7.67c-1.15 0-2.08.93-2.08 2.08v29.13c0 1.15-.93 2.08-2.08 2.08h-.52c-1.15 0-2.08-.93-2.08-2.08v-29.13c0-1.15-.93-2.08-2.08-2.08h-7.67c-1.15 0-2.08-.93-2.08-2.08v-.05z" />
    <path
      d="m243.08 335.79c-7.67 0-12.47 5.82-12.47 15.07s4.81 15.05 12.47 15.05 12.47-5.82 12.47-15.05-4.81-15.07-12.47-15.07z" />
    <path
      d="m100.45 335.79c-7.67 0-12.47 5.82-12.47 15.07s4.81 15.05 12.47 15.05 12.47-5.82 12.47-15.05-4.81-15.07-12.47-15.07z" />
    <path d="m462.55 281.67h49.45v-63.82l-49.45 62.84z" />
    <path
      d="m47.36 181.45c19.77 0 34.51 11.18 39.79 26.41h.98v-62.88c0-1.76 1.43-3.19 3.19-3.19h43.97c1.76 0 3.19 1.43 3.19 3.19v81.55c8.42-29.21 32.14-46.55 65.88-46.55s58.41 17.65 66.35 46.51c8.43-29.2 32.14-46.51 65.87-46.51 28.81 0 50.63 12.6 61.49 33.91v-27.28c0-1.76 1.43-3.19 3.19-3.19h110.73v-143.42c0-22.09-17.91-40-40-40h-431.99c-22.09 0-40 17.91-40 40v173.76c8.36-20.73 24.74-32.31 47.36-32.31z" />
    <path
      d="m66.76 220.26c-13.51 0-21.49 11.79-21.49 30.95s7.86 30.95 21.49 30.95 21.62-11.3 21.62-30.83-8.11-31.07-21.62-31.07z" />
    <path
      d="m401.06 220.73c3.04 8.19 4.67 17.42 4.67 27.53v10.44c0 1.76-1.43 3.19-3.19 3.19h-83.52c-1.76 0-3.19 1.43-3.19 3.19 0 13.26 9.58 22.84 23.09 22.84 9.43 0 17.18-4.1 20.62-11.13.53-1.08 1.64-1.76 2.84-1.76h38.91c2.03 0 3.56 1.87 3.14 3.86-.53 2.49-1.23 4.88-2.09 7.19l54.32-64.34v-.98h-55.39c-.07 0-.14-.02-.21-.02z" />
    <path
      d="m188.12 234.63h34.79c2.07 0 3.57-1.94 3.11-3.96-2.24-9.88-10.09-16.06-20.55-16.06s-18.03 6.48-20.45 16c-.52 2.03 1.01 4.01 3.1 4.01z" />
    <path
      d="m199.09 336.25h-5.41c-1.15 0-2.08.93-2.08 2.08v11.64c0 1.15.93 2.08 2.08 2.08h5.41c5.35 0 8.42-2.94 8.42-7.93s-3.04-7.87-8.42-7.87z" />
    <path
      d="m320.34 234.63h34.79c2.07 0 3.57-1.94 3.11-3.96-2.24-9.88-10.09-16.06-20.55-16.06s-18.03 6.48-20.45 16c-.52 2.03 1.01 4.01 3.1 4.01z" />
    <path
      d="m186.8 261.9c-1.76 0-3.19 1.43-3.19 3.19 0 13.26 9.58 22.84 23.09 22.84 9.43 0 17.18-4.1 20.62-11.13.53-1.08 1.64-1.76 2.84-1.76h38.91c.39 0 .75.09 1.09.21-1.11-4.2-1.9-8.66-2.36-13.35h-81.01z" />
  </g>
</svg>
