<svg viewBox="0 0 512 512" xmlns="http://www.w3.org/2000/svg">
  <g fill="#020617">
    <path
      d="m95.85 223.14c-11.43 0-18.19 9.98-18.19 26.19s6.65 26.19 18.19 26.19 18.29-9.56 18.29-26.09-6.86-26.3-18.29-26.3z" />
    <path
      d="m198.55 235.3h29.44c1.75 0 3.02-1.64 2.63-3.35-1.9-8.36-8.54-13.59-17.39-13.59s-15.26 5.49-17.31 13.54c-.44 1.72.85 3.4 2.62 3.4z" />
    <path
      d="m199.09 321.31h-5.4c-1.15 0-2.08.93-2.08 2.08v11.64c0 1.15.93 2.08 2.08 2.08h5.4c5.35 0 8.42-2.94 8.42-7.93s-3.04-7.87-8.42-7.87z" />
    <path
      d="m100.45 320.84c-7.67 0-12.47 5.82-12.47 15.07s4.81 15.05 12.47 15.05 12.47-5.82 12.47-15.05-4.81-15.07-12.47-15.07z" />
    <path
      d="m378.77 223.54c2.58 6.93 3.95 14.74 3.95 23.3v8.84c0 1.49-1.21 2.7-2.7 2.7h-70.68c-1.49 0-2.7 1.21-2.7 2.7 0 11.23 8.11 19.33 19.54 19.33 7.98 0 14.54-3.47 17.45-9.42.45-.92 1.38-1.49 2.4-1.49h32.93c1.72 0 3.02 1.59 2.65 3.26-.45 2.1-1.04 4.13-1.77 6.08l45.97-54.46v-.83h-46.88c-.06 0-.12-.01-.17-.02z" />
    <path
      d="m197.44 258.38c-1.49 0-2.7 1.21-2.7 2.7 0 11.23 8.11 19.33 19.54 19.33 7.98 0 14.54-3.47 17.45-9.42.45-.92 1.38-1.49 2.4-1.49h32.93c.33 0 .63.07.92.18-.94-3.56-1.6-7.33-1.99-11.3h-68.56z" />
    <path
      d="m472 0h-432c-22.09 0-40 17.91-40 40v432c0 22.09 17.91 40 40 40h432c22.09 0 40-17.91 40-40v-432c0-22.09-17.91-40-40-40zm-418.01 350.96c5 0 8.71-2.18 10.37-6 .32-.75 1.07-1.22 1.88-1.22h.43c1.49 0 2.51 1.53 1.92 2.9-2.38 5.57-7.49 8.64-14.63 8.64-10.34 0-16.89-7.51-16.89-19.39s6.63-19.36 16.89-19.36c7.09 0 12.7 3.74 14.84 9.63.5 1.36-.5 2.82-1.96 2.82h-.53c-.86 0-1.62-.54-1.93-1.34-1.59-4.15-5.57-6.79-10.42-6.79-7.33 0-12.08 5.92-12.08 15.05s4.7 15.07 12.11 15.07zm46.45 4.31c-10.63 0-17.28-7.46-17.28-19.36s6.65-19.39 17.28-19.39 17.28 7.48 17.28 19.39-6.65 19.36-17.28 19.36zm69.63-2.7c0 1.15-.93 2.08-2.08 2.08h-.21c-1.15 0-2.08-.93-2.08-2.08v-26.82h-.18l-11.42 27.61c-.32.78-1.08 1.28-1.92 1.28h-1.17c-.84 0-1.6-.51-1.92-1.28l-11.42-27.61h-.18v26.82c0 1.15-.93 2.08-2.08 2.08h-.21c-1.15 0-2.08-.93-2.08-2.08v-33.34c0-1.15.93-2.08 2.08-2.08h1.96c.84 0 1.6.51 1.92 1.29l12.41 30.26h.21l12.41-30.26c.32-.78 1.08-1.29 1.92-1.29h1.96c1.15 0 2.08.93 2.08 2.08zm30.19-11.3h-6.57c-1.15 0-2.08.93-2.08 2.08v9.22c0 1.15-.93 2.08-2.08 2.08h-.52c-1.15 0-2.08-.93-2.08-2.08v-33.34c0-1.15.93-2.08 2.08-2.08h11.3c7.04 0 12.01 4.94 12.01 12.03s-5.02 12.08-12.06 12.08zm42.81 14.01c-10.63 0-17.28-7.46-17.28-19.36s6.65-19.39 17.28-19.39 17.28 7.48 17.28 19.39-6.65 19.36-17.28 19.36zm62.62-2.7c0 1.15-.93 2.08-2.08 2.08h-1.39c-.68 0-1.31-.33-1.7-.89l-19.91-28.45h-.23v27.26c0 1.15-.93 2.08-2.08 2.08h-.47c-1.15 0-2.08-.93-2.08-2.08v-33.34c0-1.15.93-2.08 2.08-2.08h1.38c.68 0 1.32.33 1.71.89l19.91 28.55h.23v-27.36c0-1.15.93-2.08 2.08-2.08h.47c1.15 0 2.08.93 2.08 2.08zm40.09-33.29c0 1.15-.93 2.08-2.08 2.08h-14.4c-1.15 0-2.08.93-2.08 2.08v7.87c0 1.15.93 2.08 2.08 2.08h13.43c1.15 0 2.08.93 2.08 2.08s-.93 2.08-2.08 2.08h-13.43c-1.15 0-2.08.93-2.08 2.08v8.73c0 1.15.93 2.08 2.08 2.08h14.4c1.15 0 2.08.93 2.08 2.08v.05c0 1.15-.93 2.08-2.08 2.08h-19.07c-1.15 0-2.08-.93-2.08-2.08v-33.34c0-1.15.93-2.08 2.08-2.08h19.07c1.15 0 2.08.93 2.08 2.08zm45.67 33.29c0 1.15-.93 2.08-2.08 2.08h-1.39c-.68 0-1.31-.33-1.7-.89l-19.91-28.45h-.23v27.26c0 1.15-.93 2.08-2.08 2.08h-.47c-1.15 0-2.08-.93-2.08-2.08v-33.34c0-1.15.93-2.08 2.08-2.08h1.38c.68 0 1.32.33 1.71.89l19.91 28.55h.23v-27.36c0-1.15.93-2.08 2.08-2.08h.47c1.15 0 2.08.93 2.08 2.08zm42.84-33.29c0 1.15-.93 2.08-2.08 2.08h-7.67c-1.15 0-2.08.93-2.08 2.08v29.13c0 1.15-.93 2.08-2.08 2.08h-.52c-1.15 0-2.08-.93-2.08-2.08v-29.13c0-1.15-.93-2.08-2.08-2.08h-7.67c-1.15 0-2.08-.93-2.08-2.08v-.05c0-1.15.93-2.08 2.08-2.08h24.17c1.15 0 2.08.93 2.08 2.08v.05zm26.78 35.99c-6.98 0-11.98-3.06-13.57-7.98-.43-1.33.6-2.7 2-2.7h.55c.9 0 1.66.59 1.97 1.43 1.15 3.17 4.61 5.04 9.32 5.04 5.09 0 8.78-2.68 8.78-6.37 0-3.14-2.08-5.22-7.28-6.37l-4.16-.91c-7.51-1.64-10.76-5.04-10.76-10.37 0-6.18 5.46-10.52 13.23-10.52 6.4 0 11.28 3.27 12.69 8.2.38 1.32-.64 2.63-2.02 2.63h-.56c-.94 0-1.72-.65-2-1.54-.99-3.19-4-5.08-8.24-5.08-4.68 0-8.29 2.29-8.29 6.11 0 2.96 2 4.99 7.12 6.11l4.16.91c7.82 1.72 10.91 4.83 10.91 10.13 0 6.94-5.46 11.28-13.85 11.28zm16.93-51.27c0 1.49-1.21 2.7-2.7 2.7h-98.02c-1.49 0-2.7-1.21-2.7-2.7v-15.26c-9.5 13.2-26.8 20.87-49.03 20.87-28.57 0-48.32-12.89-56.18-35.43-5.47 21.97-26.27 35.43-55.72 35.43s-49.97-14-57.11-38.34v32.72c0 1.49-1.21 2.7-2.7 2.7h-37.21c-1.49 0-2.7-1.21-2.7-2.7v-17.15h-.83c-3.85 12.06-17.15 21.52-34.4 21.52-28.27 0-44.69-21.93-44.69-59.35s16.84-58.73 45.42-58.73c16.73 0 29.21 9.46 33.68 22.35h.83v-53.22c0-1.49 1.21-2.7 2.7-2.7h37.21c1.49 0 2.7 1.21 2.7 2.7v69.02c7.13-24.72 27.2-39.39 55.75-39.39s49.43 14.94 56.15 39.37c7.14-24.71 27.2-39.37 55.75-39.37 24.38 0 42.85 10.66 52.04 28.7v-23.09c0-1.49 1.21-2.7 2.7-2.7h94.07c1.49 0 2.7 1.21 2.7 2.7v21.62c0 .61-.2 1.19-.58 1.67l-44.32 56.33v.83h44.49c1.49 0 2.7 1.21 2.7 2.7v26.19z" />
    <path
      d="m243.08 320.84c-7.67 0-12.47 5.82-12.47 15.07s4.81 15.05 12.47 15.05 12.47-5.82 12.47-15.05-4.81-15.07-12.47-15.07z" />
    <path
      d="m310.45 235.3h29.44c1.75 0 3.02-1.64 2.63-3.35-1.9-8.36-8.54-13.59-17.39-13.59s-15.26 5.49-17.31 13.54c-.44 1.72.85 3.4 2.62 3.4z" />
  </g>
</svg>
