<svg viewBox="0 0 300.35 103.43" xmlns="http://www.w3.org/2000/svg">
  <path
    d="m298.52 80.09h-30.09v-.56l29.98-38.1c.25-.32.39-.72.39-1.13v-14.62c0-1.01-.82-1.83-1.83-1.83h-63.63c-1.01 0-1.83.82-1.83 1.83v15.62c-6.22-12.2-18.71-19.41-35.2-19.41-19.31 0-32.88 9.91-37.71 26.63-4.54-16.52-18.46-26.63-37.98-26.63s-32.89 9.92-37.72 26.65v-46.71c0-1.01-.82-1.83-1.83-1.83h-25.17c-1.01 0-1.83.82-1.83 1.83v36h-.56c-3.02-8.72-11.46-15.12-22.78-15.12-19.34 0-30.73 14.77-30.73 39.73s11.11 40.15 30.23 40.15c11.67 0 20.67-6.4 23.27-14.55h.56v11.6c0 1.01.82 1.83 1.83 1.83h25.17c1.01 0 1.83-.82 1.83-1.83v-22.14c4.83 16.46 18.49 25.93 38.63 25.93s34-9.1 37.69-23.97c5.32 15.24 18.67 23.97 38 23.97 15.03 0 26.74-5.19 33.17-14.12v10.32c0 1.01.82 1.83 1.83 1.83h66.3c1.01 0 1.83-.82 1.83-1.83v-17.72c0-1.01-.82-1.83-1.83-1.83zm-256.69.28c-7.8 0-12.3-6.61-12.3-17.72s4.57-17.72 12.3-17.72 12.38 6.68 12.38 17.79-4.57 17.65-12.38 17.65zm67.7-29.51c1.39-5.45 5.95-9.16 11.71-9.16s10.48 3.54 11.76 9.19c.26 1.16-.6 2.27-1.78 2.27h-19.92c-1.2 0-2.07-1.14-1.77-2.3zm48.12 25.43h-22.28c-.69 0-1.32.39-1.63 1.01-1.97 4.03-6.41 6.37-11.81 6.37-7.73 0-13.22-5.48-13.22-13.08 0-1.01.82-1.83 1.83-1.83h46.38c.26 2.68.71 5.24 1.35 7.64-.2-.07-.4-.12-.62-.12zm27.57-25.43c1.39-5.45 5.95-9.16 11.71-9.16s10.48 3.54 11.76 9.19c.26 1.16-.6 2.27-1.78 2.27h-19.92c-1.2 0-2.07-1.14-1.77-2.3zm79.82-5.08-31.1 36.84c.49-1.32.89-2.69 1.19-4.11.24-1.13-.64-2.21-1.8-2.21h-22.28c-.69 0-1.32.39-1.63 1.01-1.97 4.03-6.41 6.37-11.81 6.37-7.73 0-13.22-5.48-13.22-13.08 0-1.01.82-1.83 1.83-1.83h47.81c1.01 0 1.83-.82 1.83-1.83v-5.98c0-5.79-.93-11.07-2.67-15.76.04 0 .08.01.12.01h31.71v.56z"
    fill="#fff" />
</svg>
