<svg viewBox="0 0 512 512" xmlns="http://www.w3.org/2000/svg"><path d="m0 0h512v512h-512z" fill="#ed1c24"/><g fill="#fff"><path d="m51.2 102.4v307.2h409.6v-307.2zm313.8 16.71c-33 42.5-64.81 85.87-94.55 126.77-35.62-43.23-72.38-85.88-109.33-126.77zm-298 273.78v-273.78h69.87c36 38.87 57 62 94 105.83 9.48 11.24 19.34 23.08 29.32 35.21-18.45 25.54-36.35 50.8-53.21 75.09-4.48 6.46-8.7 12.49-12.8 18.35-9 12.89-17.56 25.11-27.13 39.31zm378 0h-256.65c50.51-74.89 98.33-141.83 149.77-209.79 11-14.52 31.4-41.38 49-64h57.88z"/><path d="m156.34 219c-12.34-9.15-26.28-12.74-39.34-10.14a8.6 8.6 0 0 0 -3.29.79 7.92 7.92 0 0 0 -5.5 5.24 9.93 9.93 0 0 0 .78 7.81v77.2a9.33 9.33 0 0 0 .6 3.39 10.06 10.06 0 0 0 .78 7.8 7.74 7.74 0 0 0 6.91 4 8.12 8.12 0 0 0 1-.06 8.07 8.07 0 0 0 2.8-.36c12.36-3.82 26.57-9 38.25-18.09 13.49-10.54 21.42-24.39 21.75-38 .42-18.17-15.32-32.58-24.74-39.58zm7.76 41.94c-3.43 18.58-22.73 28.13-38.46 33.75v-69c6.94.07 14.28 2.78 21.39 7.92 4.58 3.29 19.34 15.06 17.08 27.32z"/><path d="m350.55 226.15c-6.79 4.56-11.58 13.14-8.8 21.51s11.57 13 18.31 17.71 14.51 9.22 20.64 14.88c1.25 1.16 4.05 3.39 3.91 5.39-.15 2.16-4 3.6-5.57 4.34-15.61 7.29-33.91 8.92-50.85 7.09-4.68-.51-8.7 4.36-8.7 8.7 0 5.13 4 8.19 8.7 8.7a114.48 114.48 0 0 0 53.79-7c7.12-2.79 14.51-6.37 18.07-13.57 3.9-7.89 1.39-16.26-4-22.73s-13.05-10.9-19.86-15.66l-11.43-8c-1.47-1-3.08-2-4.46-3.16-.41-.34-1-1.13-1.44-1.56.38-.28.87-.78 1.11-.95a38.58 38.58 0 0 1 4.93-2.67q5.93-2.93 12-5.51a248.62 248.62 0 0 1 26.38-9.3c10.72-3.16 6.16-20-4.63-16.79a261.3 261.3 0 0 0 -25 8.72c-7.65 3.11-16.15 5.19-23.1 9.86z"/></g></svg>