<svg viewBox="0 0 512 512" xmlns="http://www.w3.org/2000/svg"><g fill="#231f20"><path d="m360.9 115h-203.9c36.94 40.91 73.71 83.54 109.33 126.77 29.76-40.89 61.62-84.26 94.57-126.77z"/><path d="m0 0v512h512v-512zm456.7 405.5h-409.6v-307.2h409.6z"/><path d="m142.94 229.48c-7.1-5.15-14.45-7.86-21.39-7.92v69c15.73-5.62 35-15.17 38.46-33.75 2.27-12.24-12.49-24.01-17.07-27.33z"/><path d="m190 349.49c4.1-5.86 8.32-11.89 12.8-18.35 16.9-24.29 34.79-49.55 53.2-75.14-10-12.14-19.84-24-29.32-35.21-37-43.85-57.91-67-94-105.83h-69.79v273.84h100c9.58-14.21 18.11-26.42 27.11-39.31zm-34.83-57c-11.68 9.13-25.89 14.27-38.25 18.09a8.07 8.07 0 0 1 -2.8.36 8.1 8.1 0 0 1 -1 .06 7.74 7.74 0 0 1 -6.91-4 10.06 10.06 0 0 1 -.78-7.8 9.33 9.33 0 0 1 -.6-3.39v-77.2a9.93 9.93 0 0 1 -.78-7.81 7.92 7.92 0 0 1 5.5-5.24 8.6 8.6 0 0 1 3.29-.79c13.06-2.6 27 1 39.35 10.13 9.42 7 25.15 21.42 24.7 39.6-.27 13.6-8.2 27.5-21.69 37.99z"/><path d="m184.26 388.8h256.66v-273.8h-57.92c-17.62 22.62-38 49.47-49 64-51.41 68-99.24 135-149.74 209.8zm162.19-166.8c7-4.66 15.44-6.74 23.16-9.9a261.3 261.3 0 0 1 25-8.72c10.78-3.18 15.35 13.62 4.63 16.79a248.62 248.62 0 0 0 -26.38 9.3q-6.09 2.57-12 5.51a38.58 38.58 0 0 0 -4.93 2.67c-.24.17-.73.67-1.11.95.43.43 1 1.22 1.44 1.56 1.38 1.17 3 2.12 4.46 3.16l11.43 8c6.77 4.76 14.54 9.24 19.88 15.68s7.87 14.83 4 22.73c-3.55 7.2-10.94 10.78-18.07 13.57a114.48 114.48 0 0 1 -53.79 7c-4.69-.51-8.7-3.58-8.7-8.7 0-4.34 4-9.21 8.7-8.7 16.94 1.84 35.23.2 50.85-7.09 1.59-.74 5.42-2.18 5.57-4.34.14-2-2.66-4.23-3.91-5.39-6.13-5.66-13.82-10.09-20.64-14.88s-15.54-9.37-18.31-17.71 1.93-16.88 8.72-21.49z"/></g></svg>