<svg viewBox="0 0 512 512" xmlns="http://www.w3.org/2000/svg">
  <style>
    path {
      fill: #093651;
    }

    @media (prefers-color-scheme: dark) {
      path {
        fill: #fff;
      }
    }
  </style>
  <path
    d="m257.67 228.46c-33.48 0-53.26 29.21-53.26 76.69s19.48 76.69 53.26 76.69 53.56-28 53.56-76.38-20.08-76.99-53.56-76.99z" />
  <path
    d="m472 0h-432c-22.09 0-40 17.91-40 40v432c0 22.09 17.91 40 40 40h432c22.09 0 40-17.91 40-40v-432c0-22.09-17.91-40-40-40zm-46.6 243.98v221.24c0 4.37-3.54 7.91-7.91 7.91h-108.95c-4.37 0-7.91-3.54-7.91-7.91v-50.21h-2.43c-11.26 35.3-50.21 62.99-100.73 62.99-82.77 0-130.86-64.21-130.86-173.77s49.3-171.94 132.99-171.94c49 0 85.51 27.69 98.6 65.43h2.43v-155.81c0-4.37 3.54-7.91 7.91-7.91h108.95c4.37 0 7.91 3.54 7.91 7.91v202.06z" />
</svg>
